<svg xmlns="http://www.w3.org/2000/svg" xmlns:xlink="http://www.w3.org/1999/xlink" width="500" zoomAndPan="magnify" viewBox="0 0 375 60" height="80" preserveAspectRatio="xMidYMid meet" version="1.0"><defs><clipPath id="62c12574d3"><path d="M 52.535156 3.546875 L 322.535156 3.546875 L 322.535156 56.699219 L 52.535156 56.699219 Z M 52.535156 3.546875 " clip-rule="nonzero"/></clipPath><clipPath id="c75cdc438c"><path d="M 187.476562 56.6875 C 194.601562 56.6875 187.476562 39.484375 187.476562 39.484375 C 187.476562 39.484375 180.351562 56.6875 187.476562 56.6875 Z M 187.476562 30.625 C 194.335938 14.746094 206.089844 17.085938 206.089844 17.085938 C 205.269531 14.410156 201.882812 14.246094 201.882812 14.246094 C 194.359375 8.894531 189.722656 22.4375 189.722656 22.4375 C 190.171875 15.246094 195.804688 10.902344 195.804688 10.902344 C 194.34375 9.394531 190.601562 10.902344 190.601562 10.902344 C 190.601562 10.902344 191.769531 3.546875 187.476562 3.546875 C 183.183594 3.546875 184.347656 10.902344 184.347656 10.902344 C 184.347656 10.902344 180.609375 9.394531 179.148438 10.902344 C 179.148438 10.902344 184.785156 15.246094 185.234375 22.4375 C 185.234375 22.4375 180.597656 8.894531 173.066406 14.246094 C 173.066406 14.246094 169.683594 14.410156 168.863281 17.085938 C 168.863281 17.085938 180.617188 14.746094 187.476562 30.625 Z M 71.128906 33.425781 C 66.15625 27.394531 61.703125 27.5 61.703125 27.5 L 63.535156 31.832031 C 55.550781 29.730469 52.535156 40.738281 52.535156 40.738281 C 52.535156 40.738281 56.859375 36.71875 62.621094 36.71875 C 68.378906 36.71875 78.589844 41.917969 83.042969 41.917969 C 85.402344 41.917969 87.460938 41.917969 88.878906 41.917969 C 83.191406 41.625 75.554688 38.792969 71.128906 33.425781 Z M 90.898438 41.917969 C 90.898438 41.917969 90.136719 41.917969 88.878906 41.917969 C 89.582031 41.957031 90.261719 41.960938 90.898438 41.917969 Z M 91.125 40.730469 C 91.265625 40.734375 91.40625 40.742188 91.550781 40.738281 C 91.550781 40.738281 91.394531 40.738281 91.125 40.730469 Z M 91.125 40.730469 C 90.898438 40.722656 90.589844 40.707031 90.214844 40.675781 C 90.507812 40.707031 90.8125 40.722656 91.125 40.730469 Z M 84.613281 29.945312 C 87.492188 29.945312 88.804688 32.867188 88.804688 32.867188 C 88.804688 32.867188 91.597656 28.773438 88.015625 25.652344 C 84.699219 22.757812 75.972656 24.863281 78.199219 32.867188 C 79.949219 39.160156 87.1875 40.421875 90.214844 40.675781 C 82.195312 39.824219 81.878906 29.945312 84.613281 29.945312 Z M 107.65625 41.917969 C 107.777344 41.886719 107.222656 41.921875 106.316406 41.972656 C 106.84375 42.023438 107.304688 42.015625 107.65625 41.917969 Z M 96.917969 39.28125 C 94.957031 38.84375 90.898438 39.28125 90.898438 39.28125 C 90.898438 39.28125 95.609375 41.296875 97.835938 41.917969 C 99.433594 42.367188 104.015625 42.109375 106.316406 41.972656 C 103.480469 41.710938 98.574219 39.652344 96.917969 39.28125 Z M 112.628906 42.105469 C 110.011719 42.105469 106.605469 45.507812 106.605469 45.507812 C 106.605469 45.507812 114.109375 48.039062 121.53125 42.105469 C 122.050781 41.6875 115.246094 42.105469 112.628906 42.105469 Z M 107.65625 39.28125 C 100.582031 33.320312 93.253906 33.425781 93.253906 33.425781 C 93.253906 33.425781 97.574219 36.695312 99.40625 38.40625 C 101.238281 40.117188 107.65625 39.28125 107.65625 39.28125 Z M 105.820312 30.136719 C 102.34375 22.261719 105.035156 14.261719 105.035156 14.261719 C 97.050781 16.023438 99.539062 27.09375 99.539062 27.09375 C 97.050781 25.253906 93.253906 27.097656 93.253906 27.097656 C 96.394531 26.964844 102.679688 32.621094 108.046875 37.136719 C 113.414062 41.652344 126.898438 40.640625 126.898438 40.640625 C 126.898438 40.640625 109.296875 38.011719 105.820312 30.136719 Z M 125.195312 38.40625 C 119.6875 34.40625 115.113281 30.78125 115.902344 34.285156 C 116.6875 37.785156 125.195312 38.40625 125.195312 38.40625 Z M 154.914062 37.617188 C 155.4375 33.542969 157.15625 29.945312 157.15625 29.945312 C 148.402344 37.960938 154.390625 41.691406 154.914062 37.617188 Z M 154.914062 19.867188 C 154.914062 19.867188 151.117188 16.777344 149.28125 14.707031 C 147.449219 12.636719 141.953125 18.417969 154.914062 19.867188 Z M 153.472656 26.179688 C 153.472656 26.179688 148.367188 25.257812 144.308594 29.335938 C 140.25 33.410156 135.929688 35.382812 132.003906 35.382812 C 128.074219 35.382812 125.328125 28.019531 130.824219 22.757812 C 130.824219 22.757812 126.867188 24.117188 126.242188 30.78125 C 125.617188 37.441406 133.835938 38.144531 137.242188 36.171875 C 140.644531 34.199219 146.011719 26.835938 153.472656 26.179688 Z M 173.449219 31.414062 C 171.441406 33.503906 173.933594 35.328125 173.933594 35.328125 C 173.847656 33.316406 176.152344 32.5 176.925781 33.808594 C 177.554688 34.875 177.011719 37.039062 174.226562 36.675781 C 171.445312 36.316406 170.488281 30.222656 175.441406 30.136719 C 178.492188 30.085938 180.585938 32.566406 181.746094 34.492188 C 178.574219 28.90625 174.027344 26.996094 169.617188 26.03125 C 163.617188 24.722656 159.355469 29.613281 158.835938 34.285156 C 158.3125 38.949219 159.917969 42.542969 163.09375 42.714844 C 166.273438 42.890625 166.402344 41.320312 166.402344 41.320312 C 165.617188 41.320312 163.792969 40.96875 163.792969 38.699219 C 163.792969 36.425781 166.023438 35.445312 167.964844 37.300781 C 169.769531 39.023438 169.183594 43.328125 163.53125 43.5 C 157.875 43.675781 155.441406 37.386719 157.15625 31.886719 C 158.867188 26.382812 169.363281 22.132812 177.183594 27.605469 C 181.238281 30.441406 183.074219 34.234375 183.902344 37.226562 C 183.03125 32.753906 181.574219 30.390625 178.574219 27.429688 C 173.871094 22.785156 168.785156 23.003906 163.816406 22.914062 C 163.625 23.257812 157.007812 24.863281 152.816406 31.570312 C 148.628906 38.273438 147.976562 40.378906 144.960938 41.167969 C 144.960938 41.167969 146.011719 35.644531 146.011719 35.25 C 146.011719 34.855469 141.558594 46.328125 129.777344 42.105469 C 129.777344 42.105469 132.921875 41.035156 133.707031 39.457031 C 133.707031 39.457031 123.101562 40.773438 120.222656 29.203125 L 122.96875 31.042969 C 122.96875 31.042969 120.875 17.894531 136.453125 22.234375 C 136.453125 22.234375 130.691406 25.519531 130.691406 29.335938 C 130.691406 33.144531 136.71875 33.65625 139.988281 28.40625 C 143.261719 23.15625 149.019531 23.285156 149.019531 23.285156 C 149.019531 23.285156 139.335938 23.179688 138.023438 14.707031 L 139.988281 15.527344 C 139.988281 15.527344 138.417969 6.234375 143.785156 6.234375 C 149.152344 6.234375 148.367188 13.421875 144.441406 13.292969 C 144.441406 13.292969 148.132812 9.347656 144.441406 9.347656 C 140.75 9.347656 139.710938 23.292969 159.683594 22.238281 C 159.683594 22.238281 159.691406 22.234375 159.691406 22.234375 C 157.109375 21.039062 156.730469 18.445312 157.527344 16.511719 C 158.574219 13.976562 162.832031 14.152344 163.269531 16.773438 C 163.703125 19.394531 160.484375 19.132812 160.398438 17.820312 C 160.3125 16.511719 161.183594 16.160156 161.183594 16.160156 C 160.398438 15.203125 158.136719 15.722656 158.136719 18.34375 C 158.136719 20.964844 160.3125 21.925781 164.835938 21.925781 C 169.359375 21.925781 173.53125 22.101562 178.402344 26.117188 C 182.820312 29.765625 184.300781 36.355469 184.535156 40.808594 C 184.597656 41.617188 184.578125 42.105469 184.578125 42.105469 C 184.027344 39.71875 183.328125 37.699219 182.515625 35.972656 C 180.867188 32.917969 175.664062 29.109375 173.449219 31.414062 Z M 286.191406 41.917969 C 284.929688 41.917969 284.171875 41.917969 284.171875 41.917969 C 284.804688 41.960938 285.484375 41.957031 286.191406 41.917969 Z M 311.53125 31.832031 L 313.363281 27.5 C 313.363281 27.5 308.914062 27.394531 303.941406 33.425781 C 299.511719 38.792969 291.878906 41.625 286.191406 41.917969 C 287.609375 41.917969 289.667969 41.917969 292.027344 41.917969 C 296.476562 41.917969 306.6875 36.71875 312.449219 36.71875 C 318.207031 36.71875 322.535156 40.738281 322.535156 40.738281 C 322.535156 40.738281 319.519531 29.730469 311.53125 31.832031 Z M 283.941406 40.730469 C 284.257812 40.722656 284.5625 40.707031 284.855469 40.675781 C 284.480469 40.707031 284.167969 40.722656 283.941406 40.730469 Z M 296.871094 32.867188 C 299.097656 24.863281 290.367188 22.757812 287.050781 25.652344 C 283.472656 28.773438 286.265625 32.867188 286.265625 32.867188 C 286.265625 32.867188 287.574219 29.945312 290.453125 29.945312 C 293.191406 29.945312 292.871094 39.824219 284.855469 40.675781 C 287.878906 40.421875 295.121094 39.160156 296.871094 32.867188 Z M 283.941406 40.730469 C 283.671875 40.738281 283.515625 40.738281 283.515625 40.738281 C 283.664062 40.742188 283.800781 40.734375 283.941406 40.730469 Z M 267.414062 41.917969 C 267.761719 42.015625 268.226562 42.023438 268.75 41.972656 C 267.84375 41.921875 267.292969 41.886719 267.414062 41.917969 Z M 278.152344 39.28125 C 276.492188 39.652344 271.585938 41.710938 268.75 41.972656 C 271.054688 42.109375 275.636719 42.367188 277.234375 41.917969 C 279.457031 41.296875 284.171875 39.28125 284.171875 39.28125 C 284.171875 39.28125 280.113281 38.84375 278.152344 39.28125 Z M 253.539062 42.105469 C 260.957031 48.039062 268.460938 45.507812 268.460938 45.507812 C 268.460938 45.507812 265.058594 42.105469 262.441406 42.105469 C 259.824219 42.105469 253.019531 41.6875 253.539062 42.105469 Z M 275.660156 38.40625 C 277.496094 36.695312 281.816406 33.425781 281.816406 33.425781 C 281.816406 33.425781 274.484375 33.320312 267.414062 39.28125 C 267.414062 39.28125 273.832031 40.117188 275.660156 38.40625 Z M 281.816406 27.097656 C 281.816406 27.097656 278.019531 25.253906 275.53125 27.09375 C 275.53125 27.09375 278.019531 16.023438 270.03125 14.261719 C 270.03125 14.261719 272.722656 22.261719 269.246094 30.136719 C 265.773438 38.011719 248.171875 40.640625 248.171875 40.640625 C 248.171875 40.640625 261.65625 41.652344 267.023438 37.136719 C 272.390625 32.621094 278.675781 26.964844 281.816406 27.097656 Z M 259.167969 34.285156 C 259.953125 30.78125 255.378906 34.40625 249.871094 38.40625 C 249.871094 38.40625 258.382812 37.785156 259.167969 34.285156 Z M 217.914062 29.945312 C 217.914062 29.945312 219.628906 33.542969 220.15625 37.617188 C 220.679688 41.691406 226.664062 37.960938 217.914062 29.945312 Z M 248.828125 30.78125 C 248.199219 24.117188 244.242188 22.757812 244.242188 22.757812 C 249.742188 28.019531 246.992188 35.382812 243.066406 35.382812 C 239.136719 35.382812 234.816406 33.410156 230.757812 29.335938 C 226.699219 25.257812 221.59375 26.179688 221.59375 26.179688 C 229.058594 26.835938 234.425781 34.199219 237.828125 36.171875 C 241.234375 38.144531 249.449219 37.441406 248.828125 30.78125 Z M 245.292969 42.105469 C 233.507812 46.328125 229.058594 34.855469 229.058594 35.25 C 229.058594 35.644531 230.105469 41.167969 230.105469 41.167969 C 227.09375 40.378906 226.441406 38.273438 222.25 31.570312 C 218.0625 24.863281 211.441406 23.257812 211.253906 22.914062 C 206.285156 23.003906 201.199219 22.785156 196.492188 27.429688 C 193.492188 30.390625 192.035156 32.753906 191.167969 37.226562 C 191.996094 34.234375 193.828125 30.441406 197.886719 27.605469 C 205.703125 22.132812 216.199219 26.382812 217.914062 31.886719 C 219.625 37.386719 217.191406 43.675781 211.539062 43.5 C 205.886719 43.328125 205.300781 39.023438 207.101562 37.300781 C 209.046875 35.445312 211.277344 36.425781 211.277344 38.699219 C 211.277344 40.96875 209.453125 41.320312 208.671875 41.320312 C 208.671875 41.320312 208.796875 42.890625 211.972656 42.714844 C 215.148438 42.542969 216.757812 38.949219 216.234375 34.285156 C 215.714844 29.613281 211.453125 24.722656 205.453125 26.03125 C 201.042969 26.996094 196.496094 28.90625 193.324219 34.492188 C 194.484375 32.566406 196.574219 30.085938 199.625 30.136719 C 204.582031 30.222656 203.625 36.316406 200.84375 36.675781 C 198.058594 37.039062 197.515625 34.875 198.144531 33.808594 C 198.917969 32.5 201.222656 33.316406 201.136719 35.328125 C 201.136719 35.328125 203.628906 33.503906 201.621094 31.414062 C 199.402344 29.109375 194.203125 32.917969 192.554688 35.972656 C 191.742188 37.699219 191.042969 39.71875 190.492188 42.105469 C 190.492188 42.105469 190.46875 41.617188 190.53125 40.808594 C 190.769531 36.355469 192.246094 29.765625 196.664062 26.117188 C 201.539062 22.101562 205.710938 21.925781 210.234375 21.925781 C 214.753906 21.925781 216.929688 20.964844 216.929688 18.34375 C 216.929688 15.722656 214.667969 15.203125 213.886719 16.160156 C 213.886719 16.160156 214.753906 16.511719 214.667969 17.820312 C 214.582031 19.132812 211.367188 19.394531 211.800781 16.773438 C 212.234375 14.152344 216.496094 13.976562 217.539062 16.511719 C 218.335938 18.445312 217.960938 21.039062 215.375 22.234375 C 215.378906 22.234375 215.382812 22.238281 215.382812 22.238281 C 235.355469 23.292969 234.316406 9.347656 230.628906 9.347656 C 226.941406 9.347656 230.628906 13.292969 230.628906 13.292969 C 226.699219 13.421875 225.917969 6.234375 231.28125 6.234375 C 236.652344 6.234375 235.078125 15.527344 235.078125 15.527344 L 237.042969 14.707031 C 235.734375 23.179688 226.046875 23.285156 226.046875 23.285156 C 226.046875 23.285156 231.804688 23.15625 235.078125 28.40625 C 238.351562 33.65625 244.375 33.144531 244.375 29.335938 C 244.375 25.519531 238.613281 22.234375 238.613281 22.234375 C 254.191406 17.894531 252.097656 31.042969 252.097656 31.042969 L 254.847656 29.203125 C 251.96875 40.773438 241.363281 39.457031 241.363281 39.457031 C 242.148438 41.035156 245.292969 42.105469 245.292969 42.105469 Z M 220.15625 19.867188 C 220.15625 19.867188 223.953125 16.777344 225.785156 14.707031 C 227.617188 12.636719 233.117188 18.417969 220.15625 19.867188 Z M 220.15625 19.867188 " clip-rule="nonzero"/></clipPath><clipPath id="f4d07ac08e"><path d="M 187.476562 56.6875 C 194.601562 56.6875 187.476562 39.484375 187.476562 39.484375 C 187.476562 39.484375 180.351562 56.6875 187.476562 56.6875 Z M 187.476562 30.625 C 194.335938 14.746094 206.089844 17.085938 206.089844 17.085938 C 205.269531 14.410156 201.882812 14.246094 201.882812 14.246094 C 194.359375 8.894531 189.722656 22.4375 189.722656 22.4375 C 190.171875 15.246094 195.804688 10.902344 195.804688 10.902344 C 194.34375 9.394531 190.601562 10.902344 190.601562 10.902344 C 190.601562 10.902344 191.769531 3.546875 187.476562 3.546875 C 183.183594 3.546875 184.347656 10.902344 184.347656 10.902344 C 184.347656 10.902344 180.609375 9.394531 179.148438 10.902344 C 179.148438 10.902344 184.785156 15.246094 185.234375 22.4375 C 185.234375 22.4375 180.597656 8.894531 173.066406 14.246094 C 173.066406 14.246094 169.683594 14.410156 168.863281 17.085938 C 168.863281 17.085938 180.617188 14.746094 187.476562 30.625 Z M 71.128906 33.425781 C 66.15625 27.394531 61.703125 27.5 61.703125 27.5 L 63.535156 31.832031 C 55.550781 29.730469 52.535156 40.738281 52.535156 40.738281 C 52.535156 40.738281 56.859375 36.71875 62.621094 36.71875 C 68.378906 36.71875 78.589844 41.917969 83.042969 41.917969 C 85.402344 41.917969 87.460938 41.917969 88.878906 41.917969 C 83.191406 41.625 75.554688 38.792969 71.128906 33.425781 Z M 90.898438 41.917969 C 90.898438 41.917969 90.136719 41.917969 88.878906 41.917969 C 89.582031 41.957031 90.261719 41.960938 90.898438 41.917969 Z M 91.125 40.730469 C 91.265625 40.734375 91.40625 40.742188 91.550781 40.738281 C 91.550781 40.738281 91.394531 40.738281 91.125 40.730469 Z M 91.125 40.730469 C 90.898438 40.722656 90.589844 40.707031 90.214844 40.675781 C 90.507812 40.707031 90.8125 40.722656 91.125 40.730469 Z M 84.613281 29.945312 C 87.492188 29.945312 88.804688 32.867188 88.804688 32.867188 C 88.804688 32.867188 91.597656 28.773438 88.015625 25.652344 C 84.699219 22.757812 75.972656 24.863281 78.199219 32.867188 C 79.949219 39.160156 87.1875 40.421875 90.214844 40.675781 C 82.195312 39.824219 81.878906 29.945312 84.613281 29.945312 Z M 107.65625 41.917969 C 107.777344 41.886719 107.222656 41.921875 106.316406 41.972656 C 106.84375 42.023438 107.304688 42.015625 107.65625 41.917969 Z M 96.917969 39.28125 C 94.957031 38.84375 90.898438 39.28125 90.898438 39.28125 C 90.898438 39.28125 95.609375 41.296875 97.835938 41.917969 C 99.433594 42.367188 104.015625 42.109375 106.316406 41.972656 C 103.480469 41.710938 98.574219 39.652344 96.917969 39.28125 Z M 112.628906 42.105469 C 110.011719 42.105469 106.605469 45.507812 106.605469 45.507812 C 106.605469 45.507812 114.109375 48.039062 121.53125 42.105469 C 122.050781 41.6875 115.246094 42.105469 112.628906 42.105469 Z M 107.65625 39.28125 C 100.582031 33.320312 93.253906 33.425781 93.253906 33.425781 C 93.253906 33.425781 97.574219 36.695312 99.40625 38.40625 C 101.238281 40.117188 107.65625 39.28125 107.65625 39.28125 Z M 105.820312 30.136719 C 102.34375 22.261719 105.035156 14.261719 105.035156 14.261719 C 97.050781 16.023438 99.539062 27.09375 99.539062 27.09375 C 97.050781 25.253906 93.253906 27.097656 93.253906 27.097656 C 96.394531 26.964844 102.679688 32.621094 108.046875 37.136719 C 113.414062 41.652344 126.898438 40.640625 126.898438 40.640625 C 126.898438 40.640625 109.296875 38.011719 105.820312 30.136719 Z M 125.195312 38.40625 C 119.6875 34.40625 115.113281 30.78125 115.902344 34.285156 C 116.6875 37.785156 125.195312 38.40625 125.195312 38.40625 Z M 154.914062 37.617188 C 155.4375 33.542969 157.15625 29.945312 157.15625 29.945312 C 148.402344 37.960938 154.390625 41.691406 154.914062 37.617188 Z M 154.914062 19.867188 C 154.914062 19.867188 151.117188 16.777344 149.28125 14.707031 C 147.449219 12.636719 141.953125 18.417969 154.914062 19.867188 Z M 153.472656 26.179688 C 153.472656 26.179688 148.367188 25.257812 144.308594 29.335938 C 140.25 33.410156 135.929688 35.382812 132.003906 35.382812 C 128.074219 35.382812 125.328125 28.019531 130.824219 22.757812 C 130.824219 22.757812 126.867188 24.117188 126.242188 30.78125 C 125.617188 37.441406 133.835938 38.144531 137.242188 36.171875 C 140.644531 34.199219 146.011719 26.835938 153.472656 26.179688 Z M 173.449219 31.414062 C 171.441406 33.503906 173.933594 35.328125 173.933594 35.328125 C 173.847656 33.316406 176.152344 32.5 176.925781 33.808594 C 177.554688 34.875 177.011719 37.039062 174.226562 36.675781 C 171.445312 36.316406 170.488281 30.222656 175.441406 30.136719 C 178.492188 30.085938 180.585938 32.566406 181.746094 34.492188 C 178.574219 28.90625 174.027344 26.996094 169.617188 26.03125 C 163.617188 24.722656 159.355469 29.613281 158.835938 34.285156 C 158.3125 38.949219 159.917969 42.542969 163.09375 42.714844 C 166.273438 42.890625 166.402344 41.320312 166.402344 41.320312 C 165.617188 41.320312 163.792969 40.96875 163.792969 38.699219 C 163.792969 36.425781 166.023438 35.445312 167.964844 37.300781 C 169.769531 39.023438 169.183594 43.328125 163.53125 43.5 C 157.875 43.675781 155.441406 37.386719 157.15625 31.886719 C 158.867188 26.382812 169.363281 22.132812 177.183594 27.605469 C 181.238281 30.441406 183.074219 34.234375 183.902344 37.226562 C 183.03125 32.753906 181.574219 30.390625 178.574219 27.429688 C 173.871094 22.785156 168.785156 23.003906 163.816406 22.914062 C 163.625 23.257812 157.007812 24.863281 152.816406 31.570312 C 148.628906 38.273438 147.976562 40.378906 144.960938 41.167969 C 144.960938 41.167969 146.011719 35.644531 146.011719 35.25 C 146.011719 34.855469 141.558594 46.328125 129.777344 42.105469 C 129.777344 42.105469 132.921875 41.035156 133.707031 39.457031 C 133.707031 39.457031 123.101562 40.773438 120.222656 29.203125 L 122.96875 31.042969 C 122.96875 31.042969 120.875 17.894531 136.453125 22.234375 C 136.453125 22.234375 130.691406 25.519531 130.691406 29.335938 C 130.691406 33.144531 136.71875 33.65625 139.988281 28.40625 C 143.261719 23.15625 149.019531 23.285156 149.019531 23.285156 C 149.019531 23.285156 139.335938 23.179688 138.023438 14.707031 L 139.988281 15.527344 C 139.988281 15.527344 138.417969 6.234375 143.785156 6.234375 C 149.152344 6.234375 148.367188 13.421875 144.441406 13.292969 C 144.441406 13.292969 148.132812 9.347656 144.441406 9.347656 C 140.75 9.347656 139.710938 23.292969 159.683594 22.238281 C 159.683594 22.238281 159.691406 22.234375 159.691406 22.234375 C 157.109375 21.039062 156.730469 18.445312 157.527344 16.511719 C 158.574219 13.976562 162.832031 14.152344 163.269531 16.773438 C 163.703125 19.394531 160.484375 19.132812 160.398438 17.820312 C 160.3125 16.511719 161.183594 16.160156 161.183594 16.160156 C 160.398438 15.203125 158.136719 15.722656 158.136719 18.34375 C 158.136719 20.964844 160.3125 21.925781 164.835938 21.925781 C 169.359375 21.925781 173.53125 22.101562 178.402344 26.117188 C 182.820312 29.765625 184.300781 36.355469 184.535156 40.808594 C 184.597656 41.617188 184.578125 42.105469 184.578125 42.105469 C 184.027344 39.71875 183.328125 37.699219 182.515625 35.972656 C 180.867188 32.917969 175.664062 29.109375 173.449219 31.414062 Z M 286.191406 41.917969 C 284.929688 41.917969 284.171875 41.917969 284.171875 41.917969 C 284.804688 41.960938 285.484375 41.957031 286.191406 41.917969 Z M 311.53125 31.832031 L 313.363281 27.5 C 313.363281 27.5 308.914062 27.394531 303.941406 33.425781 C 299.511719 38.792969 291.878906 41.625 286.191406 41.917969 C 287.609375 41.917969 289.667969 41.917969 292.027344 41.917969 C 296.476562 41.917969 306.6875 36.71875 312.449219 36.71875 C 318.207031 36.71875 322.535156 40.738281 322.535156 40.738281 C 322.535156 40.738281 319.519531 29.730469 311.53125 31.832031 Z M 283.941406 40.730469 C 284.257812 40.722656 284.5625 40.707031 284.855469 40.675781 C 284.480469 40.707031 284.167969 40.722656 283.941406 40.730469 Z M 296.871094 32.867188 C 299.097656 24.863281 290.367188 22.757812 287.050781 25.652344 C 283.472656 28.773438 286.265625 32.867188 286.265625 32.867188 C 286.265625 32.867188 287.574219 29.945312 290.453125 29.945312 C 293.191406 29.945312 292.871094 39.824219 284.855469 40.675781 C 287.878906 40.421875 295.121094 39.160156 296.871094 32.867188 Z M 283.941406 40.730469 C 283.671875 40.738281 283.515625 40.738281 283.515625 40.738281 C 283.664062 40.742188 283.800781 40.734375 283.941406 40.730469 Z M 267.414062 41.917969 C 267.761719 42.015625 268.226562 42.023438 268.75 41.972656 C 267.84375 41.921875 267.292969 41.886719 267.414062 41.917969 Z M 278.152344 39.28125 C 276.492188 39.652344 271.585938 41.710938 268.75 41.972656 C 271.054688 42.109375 275.636719 42.367188 277.234375 41.917969 C 279.457031 41.296875 284.171875 39.28125 284.171875 39.28125 C 284.171875 39.28125 280.113281 38.84375 278.152344 39.28125 Z M 253.539062 42.105469 C 260.957031 48.039062 268.460938 45.507812 268.460938 45.507812 C 268.460938 45.507812 265.058594 42.105469 262.441406 42.105469 C 259.824219 42.105469 253.019531 41.6875 253.539062 42.105469 Z M 275.660156 38.40625 C 277.496094 36.695312 281.816406 33.425781 281.816406 33.425781 C 281.816406 33.425781 274.484375 33.320312 267.414062 39.28125 C 267.414062 39.28125 273.832031 40.117188 275.660156 38.40625 Z M 281.816406 27.097656 C 281.816406 27.097656 278.019531 25.253906 275.53125 27.09375 C 275.53125 27.09375 278.019531 16.023438 270.03125 14.261719 C 270.03125 14.261719 272.722656 22.261719 269.246094 30.136719 C 265.773438 38.011719 248.171875 40.640625 248.171875 40.640625 C 248.171875 40.640625 261.65625 41.652344 267.023438 37.136719 C 272.390625 32.621094 278.675781 26.964844 281.816406 27.097656 Z M 259.167969 34.285156 C 259.953125 30.78125 255.378906 34.40625 249.871094 38.40625 C 249.871094 38.40625 258.382812 37.785156 259.167969 34.285156 Z M 217.914062 29.945312 C 217.914062 29.945312 219.628906 33.542969 220.15625 37.617188 C 220.679688 41.691406 226.664062 37.960938 217.914062 29.945312 Z M 248.828125 30.78125 C 248.199219 24.117188 244.242188 22.757812 244.242188 22.757812 C 249.742188 28.019531 246.992188 35.382812 243.066406 35.382812 C 239.136719 35.382812 234.816406 33.410156 230.757812 29.335938 C 226.699219 25.257812 221.59375 26.179688 221.59375 26.179688 C 229.058594 26.835938 234.425781 34.199219 237.828125 36.171875 C 241.234375 38.144531 249.449219 37.441406 248.828125 30.78125 Z M 245.292969 42.105469 C 233.507812 46.328125 229.058594 34.855469 229.058594 35.25 C 229.058594 35.644531 230.105469 41.167969 230.105469 41.167969 C 227.09375 40.378906 226.441406 38.273438 222.25 31.570312 C 218.0625 24.863281 211.441406 23.257812 211.253906 22.914062 C 206.285156 23.003906 201.199219 22.785156 196.492188 27.429688 C 193.492188 30.390625 192.035156 32.753906 191.167969 37.226562 C 191.996094 34.234375 193.828125 30.441406 197.886719 27.605469 C 205.703125 22.132812 216.199219 26.382812 217.914062 31.886719 C 219.625 37.386719 217.191406 43.675781 211.539062 43.5 C 205.886719 43.328125 205.300781 39.023438 207.101562 37.300781 C 209.046875 35.445312 211.277344 36.425781 211.277344 38.699219 C 211.277344 40.96875 209.453125 41.320312 208.671875 41.320312 C 208.671875 41.320312 208.796875 42.890625 211.972656 42.714844 C 215.148438 42.542969 216.757812 38.949219 216.234375 34.285156 C 215.714844 29.613281 211.453125 24.722656 205.453125 26.03125 C 201.042969 26.996094 196.496094 28.90625 193.324219 34.492188 C 194.484375 32.566406 196.574219 30.085938 199.625 30.136719 C 204.582031 30.222656 203.625 36.316406 200.84375 36.675781 C 198.058594 37.039062 197.515625 34.875 198.144531 33.808594 C 198.917969 32.5 201.222656 33.316406 201.136719 35.328125 C 201.136719 35.328125 203.628906 33.503906 201.621094 31.414062 C 199.402344 29.109375 194.203125 32.917969 192.554688 35.972656 C 191.742188 37.699219 191.042969 39.71875 190.492188 42.105469 C 190.492188 42.105469 190.46875 41.617188 190.53125 40.808594 C 190.769531 36.355469 192.246094 29.765625 196.664062 26.117188 C 201.539062 22.101562 205.710938 21.925781 210.234375 21.925781 C 214.753906 21.925781 216.929688 20.964844 216.929688 18.34375 C 216.929688 15.722656 214.667969 15.203125 213.886719 16.160156 C 213.886719 16.160156 214.753906 16.511719 214.667969 17.820312 C 214.582031 19.132812 211.367188 19.394531 211.800781 16.773438 C 212.234375 14.152344 216.496094 13.976562 217.539062 16.511719 C 218.335938 18.445312 217.960938 21.039062 215.375 22.234375 C 215.378906 22.234375 215.382812 22.238281 215.382812 22.238281 C 235.355469 23.292969 234.316406 9.347656 230.628906 9.347656 C 226.941406 9.347656 230.628906 13.292969 230.628906 13.292969 C 226.699219 13.421875 225.917969 6.234375 231.28125 6.234375 C 236.652344 6.234375 235.078125 15.527344 235.078125 15.527344 L 237.042969 14.707031 C 235.734375 23.179688 226.046875 23.285156 226.046875 23.285156 C 226.046875 23.285156 231.804688 23.15625 235.078125 28.40625 C 238.351562 33.65625 244.375 33.144531 244.375 29.335938 C 244.375 25.519531 238.613281 22.234375 238.613281 22.234375 C 254.191406 17.894531 252.097656 31.042969 252.097656 31.042969 L 254.847656 29.203125 C 251.96875 40.773438 241.363281 39.457031 241.363281 39.457031 C 242.148438 41.035156 245.292969 42.105469 245.292969 42.105469 Z M 220.15625 19.867188 C 220.15625 19.867188 223.953125 16.777344 225.785156 14.707031 C 227.617188 12.636719 233.117188 18.417969 220.15625 19.867188 " clip-rule="nonzero"/></clipPath><clipPath id="b70c257a0a"><path d="M 53.003906 -7.734375 L 50.335938 56.59375 L 322.066406 67.96875 L 324.734375 3.636719 Z M 53.003906 -7.734375 " clip-rule="nonzero"/></clipPath><radialGradient gradientTransform="matrix(0.996949, 0.0417225, -0.0415405, 1.001317, 194.58206, 27.507093)" gradientUnits="userSpaceOnUse" r="118.178664" cx="0" id="c890480d7e" cy="0" fx="0" fy="0"><stop stop-opacity="1" stop-color="rgb(95.49408%, 88.829041%, 37.059021%)" offset="0"/><stop stop-opacity="1" stop-color="rgb(95.294189%, 88.633728%, 36.863708%)" offset="0.0078125"/><stop stop-opacity="1" stop-color="rgb(95.289612%, 88.62915%, 36.682129%)" offset="0.0117188"/><stop stop-opacity="1" stop-color="rgb(95.117188%, 88.456726%, 36.486816%)" offset="0.015625"/><stop stop-opacity="1" stop-color="rgb(94.900513%, 88.061523%, 36.468506%)" offset="0.0195312"/><stop stop-opacity="1" stop-color="rgb(94.665527%, 87.82196%, 36.451721%)" offset="0.0234375"/><stop stop-opacity="1" stop-color="rgb(94.297791%, 87.62207%, 36.257935%)" offset="0.0273438"/><stop stop-opacity="1" stop-color="rgb(94.119263%, 87.249756%, 36.079407%)" offset="0.03125"/><stop stop-opacity="1" stop-color="rgb(93.92395%, 86.880493%, 35.884094%)" offset="0.0429688"/><stop stop-opacity="1" stop-color="rgb(93.728638%, 86.685181%, 35.508728%)" offset="0.0546875"/><stop stop-opacity="1" stop-color="rgb(93.728638%, 86.494446%, 35.308838%)" offset="0.0585938"/><stop stop-opacity="1" stop-color="rgb(93.528748%, 86.273193%, 35.269165%)" offset="0.0625"/><stop stop-opacity="1" stop-color="rgb(93.328857%, 86.053467%, 35.073853%)" offset="0.0664062"/><stop stop-opacity="1" stop-color="rgb(93.133545%, 85.684204%, 34.898376%)" offset="0.0703125"/><stop stop-opacity="1" stop-color="rgb(92.939758%, 85.488892%, 34.706116%)" offset="0.0820312"/><stop stop-opacity="1" stop-color="rgb(92.939758%, 85.301208%, 34.512329%)" offset="0.0859375"/><stop stop-opacity="1" stop-color="rgb(92.756653%, 85.107422%, 34.326172%)" offset="0.0898438"/><stop stop-opacity="1" stop-color="rgb(92.56134%, 84.921265%, 34.130859%)" offset="0.09375"/><stop stop-opacity="1" stop-color="rgb(92.549133%, 84.725952%, 34.118652%)" offset="0.0976562"/><stop stop-opacity="1" stop-color="rgb(92.526245%, 84.509277%, 34.095764%)" offset="0.101562"/><stop stop-opacity="1" stop-color="rgb(92.330933%, 84.291077%, 33.900452%)" offset="0.105469"/><stop stop-opacity="1" stop-color="rgb(92.158508%, 84.095764%, 33.729553%)" offset="0.109375"/><stop stop-opacity="1" stop-color="rgb(92.158508%, 83.909607%, 33.720398%)" offset="0.113281"/><stop stop-opacity="1" stop-color="rgb(92.153931%, 83.714294%, 33.520508%)" offset="0.117188"/><stop stop-opacity="1" stop-color="rgb(91.954041%, 83.401489%, 33.201599%)" offset="0.121094"/><stop stop-opacity="1" stop-color="rgb(91.758728%, 83.210754%, 33.010864%)" offset="0.132812"/><stop stop-opacity="1" stop-color="rgb(91.581726%, 83.143616%, 32.943726%)" offset="0.136719"/><stop stop-opacity="1" stop-color="rgb(91.387939%, 82.966614%, 32.939148%)" offset="0.140625"/><stop stop-opacity="1" stop-color="rgb(91.174316%, 82.749939%, 32.917786%)" offset="0.144531"/><stop stop-opacity="1" stop-color="rgb(90.962219%, 82.527161%, 32.722473%)" offset="0.148438"/><stop stop-opacity="1" stop-color="rgb(90.766907%, 82.336426%, 32.548523%)" offset="0.152344"/><stop stop-opacity="1" stop-color="rgb(90.589905%, 82.141113%, 32.540894%)" offset="0.15625"/><stop stop-opacity="1" stop-color="rgb(90.400696%, 81.764221%, 32.345581%)" offset="0.160156"/><stop stop-opacity="1" stop-color="rgb(90.205383%, 81.384277%, 31.970215%)" offset="0.171875"/><stop stop-opacity="1" stop-color="rgb(90.19928%, 81.190491%, 31.770325%)" offset="0.175781"/><stop stop-opacity="1" stop-color="rgb(90.19928%, 80.999756%, 31.759644%)" offset="0.179688"/><stop stop-opacity="1" stop-color="rgb(90.023804%, 80.79834%, 31.759644%)" offset="0.183594"/><stop stop-opacity="1" stop-color="rgb(89.804077%, 80.583191%, 31.564331%)" offset="0.1875"/><stop stop-opacity="1" stop-color="rgb(89.584351%, 80.374146%, 31.369019%)" offset="0.191406"/><stop stop-opacity="1" stop-color="rgb(89.398193%, 80.178833%, 31.358337%)" offset="0.195312"/><stop stop-opacity="1" stop-color="rgb(89.202881%, 79.803467%, 31.163025%)" offset="0.199219"/><stop stop-opacity="1" stop-color="rgb(89.019775%, 79.421997%, 30.792236%)" offset="0.210938"/><stop stop-opacity="1" stop-color="rgb(88.83667%, 79.226685%, 30.596924%)" offset="0.214844"/><stop stop-opacity="1" stop-color="rgb(88.641357%, 79.03595%, 30.410767%)" offset="0.21875"/><stop stop-opacity="1" stop-color="rgb(88.62915%, 78.83606%, 30.215454%)" offset="0.222656"/><stop stop-opacity="1" stop-color="rgb(88.606262%, 78.623962%, 30.175781%)" offset="0.226562"/><stop stop-opacity="1" stop-color="rgb(88.41095%, 78.410339%, 29.975891%)" offset="0.230469"/><stop stop-opacity="1" stop-color="rgb(88.224792%, 78.215027%, 29.798889%)" offset="0.234375"/><stop stop-opacity="1" stop-color="rgb(88.024902%, 78.039551%, 29.798889%)" offset="0.238281"/><stop stop-opacity="1" stop-color="rgb(87.643433%, 77.844238%, 29.603577%)" offset="0.242188"/><stop stop-opacity="1" stop-color="rgb(87.260437%, 77.455139%, 29.220581%)" offset="0.253906"/><stop stop-opacity="1" stop-color="rgb(87.065125%, 77.072144%, 29.025269%)" offset="0.261719"/><stop stop-opacity="1" stop-color="rgb(86.962891%, 76.774597%, 28.923035%)" offset="0.269531"/><stop stop-opacity="1" stop-color="rgb(86.769104%, 76.559448%, 28.727722%)" offset="0.273438"/><stop stop-opacity="1" stop-color="rgb(86.665344%, 76.261902%, 28.623962%)" offset="0.277344"/><stop stop-opacity="1" stop-color="rgb(86.465454%, 75.880432%, 28.430176%)" offset="0.285156"/><stop stop-opacity="1" stop-color="rgb(86.268616%, 75.495911%, 28.045654%)" offset="0.292969"/><stop stop-opacity="1" stop-color="rgb(86.083984%, 75.109863%, 27.844238%)" offset="0.300781"/><stop stop-opacity="1" stop-color="rgb(85.791016%, 74.810791%, 27.742004%)" offset="0.308594"/><stop stop-opacity="1" stop-color="rgb(85.586548%, 74.606323%, 27.536011%)" offset="0.3125"/><stop stop-opacity="1" stop-color="rgb(85.482788%, 74.502563%, 27.244568%)" offset="0.316406"/><stop stop-opacity="1" stop-color="rgb(85.289001%, 74.307251%, 27.058411%)" offset="0.324219"/><stop stop-opacity="1" stop-color="rgb(85.099792%, 73.927307%, 26.867676%)" offset="0.332031"/><stop stop-opacity="1" stop-color="rgb(84.912109%, 73.54126%, 26.672363%)" offset="0.339844"/><stop stop-opacity="1" stop-color="rgb(84.716797%, 73.23761%, 26.669312%)" offset="0.347656"/><stop stop-opacity="1" stop-color="rgb(84.69696%, 73.022461%, 26.657104%)" offset="0.351562"/><stop stop-opacity="1" stop-color="rgb(84.490967%, 72.724915%, 26.451111%)" offset="0.355469"/><stop stop-opacity="1" stop-color="rgb(84.104919%, 72.344971%, 26.066589%)" offset="0.363281"/><stop stop-opacity="1" stop-color="rgb(83.72345%, 71.958923%, 25.878906%)" offset="0.371094"/><stop stop-opacity="1" stop-color="rgb(83.531189%, 71.572876%, 25.691223%)" offset="0.378906"/><stop stop-opacity="1" stop-color="rgb(83.345032%, 71.192932%, 25.495911%)" offset="0.386719"/><stop stop-opacity="1" stop-color="rgb(83.14209%, 70.982361%, 25.294495%)" offset="0.394531"/><stop stop-opacity="1" stop-color="rgb(82.936096%, 70.77179%, 25.099182%)" offset="0.402344"/><stop stop-opacity="1" stop-color="rgb(82.554626%, 70.39032%, 24.908447%)" offset="0.410156"/><stop stop-opacity="1" stop-color="rgb(82.354736%, 70.00885%, 24.523926%)" offset="0.425781"/><stop stop-opacity="1" stop-color="rgb(82.250977%, 69.711304%, 24.319458%)" offset="0.433594"/><stop stop-opacity="1" stop-color="rgb(82.05719%, 69.496155%, 24.298096%)" offset="0.4375"/><stop stop-opacity="1" stop-color="rgb(81.95343%, 69.198608%, 24.098206%)" offset="0.441406"/><stop stop-opacity="1" stop-color="rgb(81.758118%, 68.818665%, 23.718262%)" offset="0.449219"/><stop stop-opacity="1" stop-color="rgb(81.382751%, 68.441772%, 23.342896%)" offset="0.464844"/><stop stop-opacity="1" stop-color="rgb(81.187439%, 68.145752%, 23.147583%)" offset="0.472656"/><stop stop-opacity="1" stop-color="rgb(81.167603%, 67.926025%, 23.127747%)" offset="0.476562"/><stop stop-opacity="1" stop-color="rgb(80.960083%, 67.625427%, 22.932434%)" offset="0.480469"/><stop stop-opacity="1" stop-color="rgb(80.577087%, 67.245483%, 22.746277%)" offset="0.488281"/><stop stop-opacity="1" stop-color="rgb(80.389404%, 66.864014%, 22.549438%)" offset="0.496094"/><stop stop-opacity="1" stop-color="rgb(80.389404%, 66.670227%, 22.351074%)" offset="0.503906"/><stop stop-opacity="1" stop-color="rgb(80.207825%, 66.482544%, 22.349548%)" offset="0.507812"/><stop stop-opacity="1" stop-color="rgb(80.012512%, 66.282654%, 22.172546%)" offset="0.511719"/><stop stop-opacity="1" stop-color="rgb(79.826355%, 66.096497%, 21.977234%)" offset="0.515625"/><stop stop-opacity="1" stop-color="rgb(79.498291%, 65.768433%, 21.824646%)" offset="0.519531"/><stop stop-opacity="1" stop-color="rgb(79.28009%, 65.550232%, 21.629333%)" offset="0.53125"/><stop stop-opacity="1" stop-color="rgb(79.219055%, 65.299988%, 21.569824%)" offset="0.542969"/><stop stop-opacity="1" stop-color="rgb(79.029846%, 65.104675%, 21.569824%)" offset="0.546875"/><stop stop-opacity="1" stop-color="rgb(78.829956%, 64.918518%, 21.569824%)" offset="0.550781"/><stop stop-opacity="1" stop-color="rgb(78.819275%, 64.724731%, 21.394348%)" offset="0.554688"/><stop stop-opacity="1" stop-color="rgb(78.648376%, 64.533997%, 21.199036%)" offset="0.558594"/><stop stop-opacity="1" stop-color="rgb(78.433228%, 64.31427%, 21.157837%)" offset="0.5625"/><stop stop-opacity="1" stop-color="rgb(78.213501%, 64.08844%, 20.951843%)" offset="0.566406"/><stop stop-opacity="1" stop-color="rgb(77.851868%, 63.717651%, 20.578003%)" offset="0.578125"/><stop stop-opacity="1" stop-color="rgb(77.656555%, 63.346863%, 20.205688%)" offset="0.589844"/><stop stop-opacity="1" stop-color="rgb(77.648926%, 63.15155%, 20.011902%)" offset="0.59375"/><stop stop-opacity="1" stop-color="rgb(77.648926%, 62.965393%, 19.999695%)" offset="0.597656"/><stop stop-opacity="1" stop-color="rgb(77.449036%, 62.747192%, 19.804382%)" offset="0.601562"/><stop stop-opacity="1" stop-color="rgb(77.230835%, 62.52594%, 19.60907%)" offset="0.605469"/><stop stop-opacity="1" stop-color="rgb(77.035522%, 62.335205%, 19.595337%)" offset="0.609375"/><stop stop-opacity="1" stop-color="rgb(76.858521%, 62.139893%, 19.400024%)" offset="0.613281"/><stop stop-opacity="1" stop-color="rgb(76.667786%, 61.764526%, 19.024658%)" offset="0.617188"/><stop stop-opacity="1" stop-color="rgb(76.473999%, 61.387634%, 18.823242%)" offset="0.628906"/><stop stop-opacity="1" stop-color="rgb(76.292419%, 61.010742%, 18.641663%)" offset="0.636719"/><stop stop-opacity="1" stop-color="rgb(75.924683%, 60.797119%, 18.447876%)" offset="0.640625"/><stop stop-opacity="1" stop-color="rgb(75.712585%, 60.572815%, 18.234253%)" offset="0.644531"/><stop stop-opacity="1" stop-color="rgb(75.683594%, 60.183716%, 18.032837%)" offset="0.648438"/><stop stop-opacity="1" stop-color="rgb(75.483704%, 59.997559%, 17.837524%)" offset="0.65625"/><stop stop-opacity="1" stop-color="rgb(75.289917%, 59.805298%, 17.649841%)" offset="0.664062"/><stop stop-opacity="1" stop-color="rgb(75.102234%, 59.425354%, 17.457581%)" offset="0.671875"/><stop stop-opacity="1" stop-color="rgb(74.906921%, 59.039307%, 17.256165%)" offset="0.679688"/><stop stop-opacity="1" stop-color="rgb(74.804688%, 58.735657%, 17.153931%)" offset="0.6875"/><stop stop-opacity="1" stop-color="rgb(74.601746%, 58.520508%, 16.958618%)" offset="0.691406"/><stop stop-opacity="1" stop-color="rgb(74.305725%, 58.226013%, 16.665649%)" offset="0.695312"/><stop stop-opacity="1" stop-color="rgb(73.924255%, 57.844543%, 16.470337%)" offset="0.710938"/><stop stop-opacity="1" stop-color="rgb(73.550415%, 57.470703%, 16.273499%)" offset="0.71875"/><stop stop-opacity="1" stop-color="rgb(73.339844%, 57.260132%, 15.872192%)" offset="0.726562"/><stop stop-opacity="1" stop-color="rgb(73.121643%, 57.035828%, 15.47699%)" offset="0.730469"/><stop stop-opacity="1" stop-color="rgb(72.935486%, 56.654358%, 15.286255%)" offset="0.738281"/><stop stop-opacity="1" stop-color="rgb(72.743225%, 56.274414%, 15.093994%)" offset="0.746094"/><stop stop-opacity="1" stop-color="rgb(72.550964%, 55.89447%, 14.900208%)" offset="0.753906"/><stop stop-opacity="1" stop-color="rgb(72.549438%, 55.697632%, 14.703369%)" offset="0.757812"/><stop stop-opacity="1" stop-color="rgb(72.354126%, 55.488586%, 14.48822%)" offset="0.769531"/><stop stop-opacity="1" stop-color="rgb(72.158813%, 55.288696%, 14.292908%)" offset="0.773438"/><stop stop-opacity="1" stop-color="rgb(72.146606%, 55.276489%, 14.118958%)" offset="0.777344"/><stop stop-opacity="1" stop-color="rgb(71.946716%, 55.073547%, 14.111328%)" offset="0.78125"/><stop stop-opacity="1" stop-color="rgb(71.755981%, 54.696655%, 13.916016%)" offset="0.785156"/><stop stop-opacity="1" stop-color="rgb(71.560669%, 54.382324%, 13.600159%)" offset="0.789062"/><stop stop-opacity="1" stop-color="rgb(71.369934%, 54.191589%, 13.404846%)" offset="0.800781"/><stop stop-opacity="1" stop-color="rgb(71.369934%, 54.124451%, 13.33313%)" offset="0.804688"/><stop stop-opacity="1" stop-color="rgb(71.369934%, 53.948975%, 13.328552%)" offset="0.808594"/><stop stop-opacity="1" stop-color="rgb(71.16394%, 53.742981%, 13.13324%)" offset="0.8125"/><stop stop-opacity="1" stop-color="rgb(70.773315%, 53.514099%, 12.939453%)" offset="0.816406"/><stop stop-opacity="1" stop-color="rgb(70.587158%, 53.128052%, 12.937927%)" offset="0.824219"/><stop stop-opacity="1" stop-color="rgb(70.396423%, 52.746582%, 12.747192%)" offset="0.832031"/><stop stop-opacity="1" stop-color="rgb(70.011902%, 52.366638%, 12.55188%)" offset="0.839844"/><stop stop-opacity="1" stop-color="rgb(69.807434%, 52.06604%, 12.548828%)" offset="0.847656"/><stop stop-opacity="1" stop-color="rgb(69.787598%, 51.846313%, 12.548828%)" offset="0.851562"/><stop stop-opacity="1" stop-color="rgb(69.590759%, 51.550293%, 12.353516%)" offset="0.855469"/><stop stop-opacity="1" stop-color="rgb(69.213867%, 51.173401%, 12.159729%)" offset="0.871094"/><stop stop-opacity="1" stop-color="rgb(69.020081%, 50.98114%, 12.159729%)" offset="0.878906"/><stop stop-opacity="1" stop-color="rgb(69.018555%, 50.798035%, 11.973572%)" offset="0.882812"/><stop stop-opacity="1" stop-color="rgb(68.841553%, 50.602722%, 11.773682%)" offset="0.886719"/><stop stop-opacity="1" stop-color="rgb(68.647766%, 50.588989%, 11.759949%)" offset="0.890625"/><stop stop-opacity="1" stop-color="rgb(68.629456%, 50.393677%, 11.759949%)" offset="0.894531"/><stop stop-opacity="1" stop-color="rgb(68.612671%, 50.18158%, 11.743164%)" offset="0.898438"/><stop stop-opacity="1" stop-color="rgb(68.417358%, 49.969482%, 11.547852%)" offset="0.902344"/><stop stop-opacity="1" stop-color="rgb(68.234253%, 49.588013%, 11.369324%)" offset="0.90625"/><stop stop-opacity="1" stop-color="rgb(68.035889%, 49.211121%, 11.369324%)" offset="0.910156"/><stop stop-opacity="1" stop-color="rgb(67.649841%, 49.01886%, 11.369324%)" offset="0.917969"/><stop stop-opacity="1" stop-color="rgb(67.454529%, 48.834229%, 11.369324%)" offset="0.925781"/><stop stop-opacity="1" stop-color="rgb(67.449951%, 48.54126%, 11.369324%)" offset="0.933594"/><stop stop-opacity="1" stop-color="rgb(67.254639%, 48.321533%, 11.369324%)" offset="0.9375"/><stop stop-opacity="1" stop-color="rgb(67.059326%, 48.023987%, 11.369324%)" offset="0.945312"/><stop stop-opacity="1" stop-color="rgb(67.053223%, 47.833252%, 11.369324%)" offset="0.949219"/><stop stop-opacity="1" stop-color="rgb(66.856384%, 47.636414%, 11.369324%)" offset="0.953125"/><stop stop-opacity="1" stop-color="rgb(66.471863%, 47.25647%, 11.369324%)" offset="0.957031"/><stop stop-opacity="1" stop-color="rgb(66.271973%, 47.062683%, 11.369324%)" offset="0.964844"/><stop stop-opacity="1" stop-color="rgb(66.268921%, 46.885681%, 11.369324%)" offset="0.972656"/><stop stop-opacity="1" stop-color="rgb(66.073608%, 46.678162%, 11.369324%)" offset="0.976562"/><stop stop-opacity="1" stop-color="rgb(65.879822%, 46.548462%, 11.369324%)" offset="0.980469"/><stop stop-opacity="1" stop-color="rgb(65.866089%, 46.34552%, 11.369324%)" offset="0.984375"/><stop stop-opacity="1" stop-color="rgb(65.670776%, 46.060181%, 11.369324%)" offset="0.988281"/><stop stop-opacity="1" stop-color="rgb(65.489197%, 45.878601%, 11.369324%)" offset="1"/></radialGradient></defs><rect x="-37.5" width="450" fill="#ffffff" y="-6" height="72" fill-opacity="1"/><rect x="-37.5" width="450" fill="#ffffff" y="-6" height="72" fill-opacity="1"/><g clip-path="url(#62c12574d3)"><g clip-path="url(#c75cdc438c)"><g clip-path="url(#f4d07ac08e)"><g clip-path="url(#b70c257a0a)"><path fill="url(#c890480d7e)" d="M 53.003906 -7.734375 L 50.332031 56.597656 L 322.066406 67.96875 L 324.734375 3.640625 Z M 53.003906 -7.734375 " fill-rule="nonzero"/></g></g></g></g></svg>