<svg xmlns="http://www.w3.org/2000/svg" xmlns:xlink="http://www.w3.org/1999/xlink" width="500" zoomAndPan="magnify" viewBox="0 0 375 60" height="80" preserveAspectRatio="xMidYMid meet" version="1.0"><defs><clipPath id="5426451fe7"><path d="M 173 16.171875 L 202 16.171875 L 202 43.921875 L 173 43.921875 Z M 173 16.171875 " clip-rule="nonzero"/></clipPath></defs><rect x="-37.5" width="450" fill="#ffffff" y="-6" height="72" fill-opacity="1"/><rect x="-37.5" width="450" fill="#ffffff" y="-6" height="72" fill-opacity="1"/><path fill="#d66400" d="M 200.824219 39.921875 C 199.523438 39.925781 198.269531 39.675781 197.066406 39.179688 C 195.863281 38.679688 194.800781 37.96875 193.882812 37.042969 L 187.234375 30.363281 C 187.15625 30.285156 187.113281 30.1875 187.113281 30.074219 C 187.113281 29.960938 187.15625 29.867188 187.234375 29.785156 L 193.890625 23.105469 C 194.175781 22.820312 194.476562 22.554688 194.792969 22.304688 C 195.109375 22.054688 195.441406 21.828125 195.785156 21.621094 C 196.132812 21.414062 196.488281 21.226562 196.855469 21.0625 C 197.222656 20.898438 197.601562 20.757812 197.984375 20.640625 C 198.371094 20.523438 198.761719 20.429688 199.15625 20.363281 C 199.554688 20.292969 199.953125 20.246094 200.355469 20.226562 C 200.757812 20.207031 201.160156 20.210938 201.558594 20.242188 C 201.960938 20.273438 202.359375 20.324219 202.753906 20.40625 C 203.148438 20.484375 203.539062 20.585938 203.917969 20.714844 C 204.300781 20.839844 204.675781 20.988281 205.039062 21.160156 C 205.402344 21.335938 205.753906 21.527344 206.09375 21.746094 C 206.433594 21.960938 206.761719 22.195312 207.070312 22.453125 C 207.382812 22.710938 207.675781 22.984375 207.953125 23.277344 C 208.230469 23.570312 208.488281 23.878906 208.730469 24.203125 C 208.96875 24.527344 209.1875 24.863281 209.386719 25.214844 C 209.585938 25.566406 209.761719 25.929688 209.914062 26.300781 C 210.070312 26.675781 210.199219 27.058594 210.304688 27.445312 C 210.414062 27.835938 210.496094 28.230469 210.554688 28.628906 C 210.613281 29.027344 210.648438 29.429688 210.65625 29.832031 C 210.667969 30.238281 210.652344 30.640625 210.613281 31.042969 C 210.574219 31.445312 210.507812 31.84375 210.421875 32.234375 C 210.332031 32.628906 210.21875 33.015625 210.082031 33.398438 C 209.949219 33.777344 209.789062 34.148438 209.609375 34.507812 C 209.425781 34.867188 209.222656 35.214844 209 35.550781 C 208.777344 35.886719 208.53125 36.207031 208.269531 36.511719 C 208.007812 36.820312 207.726562 37.105469 207.425781 37.378906 C 207.128906 37.648438 206.816406 37.898438 206.484375 38.132812 C 206.15625 38.363281 205.8125 38.574219 205.457031 38.765625 C 205.105469 38.957031 204.738281 39.121094 204.363281 39.269531 C 203.988281 39.414062 203.605469 39.535156 203.214844 39.632812 C 202.824219 39.730469 202.425781 39.800781 202.027344 39.851562 C 201.628906 39.898438 201.226562 39.925781 200.824219 39.921875 Z M 188.085938 30.085938 L 194.464844 36.46875 C 194.882812 36.886719 195.335938 37.261719 195.828125 37.59375 C 196.320312 37.921875 196.839844 38.199219 197.386719 38.425781 C 197.933594 38.65625 198.496094 38.828125 199.078125 38.941406 C 199.660156 39.058594 200.246094 39.117188 200.835938 39.117188 C 201.429688 39.117188 202.015625 39.058594 202.59375 38.941406 C 203.175781 38.828125 203.738281 38.65625 204.285156 38.429688 C 204.832031 38.199219 205.351562 37.921875 205.84375 37.59375 C 206.335938 37.261719 206.789062 36.886719 207.207031 36.46875 C 207.625 36.046875 208 35.589844 208.328125 35.097656 C 208.65625 34.605469 208.933594 34.082031 209.160156 33.535156 C 209.386719 32.984375 209.558594 32.421875 209.675781 31.839844 C 209.789062 31.257812 209.847656 30.667969 209.847656 30.074219 C 209.847656 29.480469 209.789062 28.894531 209.675781 28.3125 C 209.558594 27.726562 209.386719 27.164062 209.160156 26.613281 C 208.933594 26.066406 208.65625 25.542969 208.328125 25.050781 C 208 24.558594 207.625 24.101562 207.207031 23.679688 C 206.789062 23.261719 206.335938 22.886719 205.84375 22.558594 C 205.351562 22.226562 204.832031 21.949219 204.285156 21.722656 C 203.738281 21.492188 203.175781 21.324219 202.59375 21.207031 C 202.015625 21.089844 201.429688 21.03125 200.835938 21.03125 C 200.246094 21.035156 199.660156 21.089844 199.078125 21.207031 C 198.496094 21.324219 197.933594 21.496094 197.386719 21.722656 C 196.839844 21.949219 196.320312 22.226562 195.828125 22.558594 C 195.335938 22.886719 194.882812 23.261719 194.464844 23.683594 Z M 188.085938 30.085938 " fill-opacity="1" fill-rule="nonzero"/><path fill="#d66400" d="M 173.9375 39.929688 C 173.535156 39.929688 173.132812 39.902344 172.734375 39.855469 C 172.335938 39.804688 171.941406 39.730469 171.550781 39.632812 C 171.160156 39.535156 170.777344 39.414062 170.402344 39.269531 C 170.027344 39.121094 169.660156 38.953125 169.304688 38.765625 C 168.953125 38.574219 168.609375 38.363281 168.28125 38.128906 C 167.953125 37.898438 167.640625 37.648438 167.339844 37.375 C 167.042969 37.105469 166.761719 36.816406 166.5 36.511719 C 166.238281 36.207031 165.992188 35.882812 165.769531 35.550781 C 165.546875 35.214844 165.34375 34.867188 165.164062 34.503906 C 164.984375 34.144531 164.824219 33.773438 164.691406 33.394531 C 164.554688 33.015625 164.441406 32.628906 164.355469 32.234375 C 164.265625 31.839844 164.203125 31.441406 164.164062 31.039062 C 164.125 30.640625 164.109375 30.234375 164.117188 29.832031 C 164.128906 29.429688 164.164062 29.027344 164.222656 28.628906 C 164.28125 28.230469 164.363281 27.835938 164.472656 27.445312 C 164.578125 27.058594 164.710938 26.675781 164.863281 26.304688 C 165.015625 25.929688 165.191406 25.570312 165.390625 25.21875 C 165.589844 24.867188 165.808594 24.527344 166.046875 24.203125 C 166.289062 23.878906 166.546875 23.574219 166.824219 23.28125 C 167.101562 22.988281 167.394531 22.714844 167.707031 22.457031 C 168.015625 22.203125 168.34375 21.964844 168.683594 21.75 C 169.023438 21.535156 169.375 21.339844 169.738281 21.167969 C 170.101562 20.996094 170.472656 20.84375 170.855469 20.71875 C 171.238281 20.589844 171.625 20.488281 172.019531 20.410156 C 172.414062 20.332031 172.8125 20.277344 173.214844 20.246094 C 173.613281 20.21875 174.015625 20.214844 174.417969 20.234375 C 174.820312 20.253906 175.21875 20.296875 175.613281 20.367188 C 176.011719 20.433594 176.402344 20.527344 176.785156 20.644531 C 177.171875 20.761719 177.546875 20.902344 177.914062 21.066406 C 178.285156 21.230469 178.640625 21.414062 178.984375 21.621094 C 179.328125 21.832031 179.660156 22.058594 179.976562 22.304688 C 180.292969 22.554688 180.59375 22.820312 180.878906 23.105469 L 187.539062 29.792969 C 187.617188 29.875 187.65625 29.96875 187.65625 30.082031 C 187.65625 30.195312 187.617188 30.289062 187.539062 30.371094 L 180.878906 37.042969 C 179.960938 37.96875 178.898438 38.683594 177.695312 39.183594 C 176.492188 39.683594 175.238281 39.933594 173.9375 39.929688 Z M 173.9375 21.03125 C 173.566406 21.03125 173.199219 21.054688 172.832031 21.101562 C 172.464844 21.144531 172.105469 21.214844 171.746094 21.304688 C 171.386719 21.394531 171.035156 21.503906 170.691406 21.636719 C 170.347656 21.773438 170.011719 21.925781 169.6875 22.101562 C 169.363281 22.273438 169.046875 22.46875 168.746094 22.683594 C 168.445312 22.894531 168.15625 23.125 167.882812 23.375 C 167.609375 23.625 167.351562 23.886719 167.113281 24.167969 C 166.871094 24.449219 166.648438 24.742188 166.441406 25.050781 C 166.238281 25.359375 166.050781 25.679688 165.886719 26.007812 C 165.71875 26.339844 165.574219 26.679688 165.449219 27.027344 C 165.324219 27.375 165.222656 27.730469 165.144531 28.09375 C 165.0625 28.453125 165.003906 28.820312 164.96875 29.1875 C 164.929688 29.554688 164.917969 29.925781 164.925781 30.296875 C 164.933594 30.667969 164.96875 31.035156 165.019531 31.402344 C 165.074219 31.765625 165.152344 32.128906 165.25 32.484375 C 165.347656 32.84375 165.46875 33.191406 165.609375 33.535156 C 165.75 33.875 165.914062 34.207031 166.09375 34.53125 C 166.277344 34.851562 166.476562 35.164062 166.695312 35.460938 C 166.917969 35.757812 167.152344 36.039062 167.410156 36.308594 C 167.664062 36.578125 167.933594 36.828125 168.21875 37.0625 C 168.503906 37.296875 168.800781 37.515625 169.113281 37.714844 C 169.425781 37.910156 169.75 38.089844 170.082031 38.25 C 170.414062 38.40625 170.757812 38.542969 171.109375 38.660156 C 171.457031 38.777344 171.816406 38.871094 172.175781 38.941406 C 172.539062 39.015625 172.902344 39.0625 173.273438 39.089844 C 173.640625 39.117188 174.007812 39.125 174.378906 39.105469 C 174.746094 39.085938 175.113281 39.046875 175.476562 38.984375 C 175.839844 38.917969 176.199219 38.835938 176.550781 38.726562 C 176.902344 38.617188 177.25 38.488281 177.585938 38.339844 C 177.925781 38.191406 178.25 38.019531 178.566406 37.828125 C 178.882812 37.640625 179.1875 37.429688 179.480469 37.203125 C 179.769531 36.972656 180.046875 36.730469 180.308594 36.46875 L 186.679688 30.074219 L 180.308594 23.683594 C 179.464844 22.832031 178.488281 22.175781 177.386719 21.71875 C 176.28125 21.257812 175.132812 21.03125 173.9375 21.03125 Z M 173.9375 21.03125 " fill-opacity="1" fill-rule="nonzero"/><g clip-path="url(#5426451fe7)"><path fill="#d66400" d="M 187.386719 43.976562 C 187.273438 43.976562 187.179688 43.9375 187.101562 43.859375 L 173.648438 30.363281 C 173.570312 30.28125 173.53125 30.1875 173.53125 30.074219 C 173.53125 29.960938 173.570312 29.867188 173.648438 29.785156 L 187.101562 16.289062 C 187.179688 16.210938 187.273438 16.171875 187.386719 16.171875 C 187.5 16.171875 187.59375 16.210938 187.671875 16.289062 L 201.121094 29.792969 C 201.203125 29.875 201.242188 29.96875 201.242188 30.082031 C 201.242188 30.195312 201.203125 30.289062 201.121094 30.371094 L 187.671875 43.867188 C 187.59375 43.941406 187.496094 43.980469 187.386719 43.976562 Z M 174.507812 30.074219 L 187.386719 42.992188 L 200.261719 30.074219 L 187.386719 17.15625 Z M 174.507812 30.074219 " fill-opacity="1" fill-rule="nonzero"/></g><path fill="#d66400" d="M 174.308594 30.480469 L 0.796875 30.480469 C 0.570312 30.480469 0.796875 30.300781 0.796875 30.074219 C 0.796875 29.851562 0.570312 29.667969 0.796875 29.667969 L 174.308594 29.667969 C 174.417969 29.667969 174.515625 29.707031 174.59375 29.789062 C 174.671875 29.867188 174.710938 29.960938 174.710938 30.074219 C 174.710938 30.1875 174.671875 30.28125 174.59375 30.363281 C 174.515625 30.441406 174.417969 30.480469 174.308594 30.480469 Z M 174.308594 30.480469 " fill-opacity="1" fill-rule="nonzero"/><path fill="#d66400" d="M 373.980469 30.480469 L 200.464844 30.480469 C 200.351562 30.480469 200.257812 30.441406 200.175781 30.363281 C 200.097656 30.28125 200.058594 30.1875 200.058594 30.074219 C 200.058594 29.960938 200.097656 29.867188 200.175781 29.789062 C 200.257812 29.707031 200.351562 29.667969 200.464844 29.667969 L 373.980469 29.667969 C 374.203125 29.667969 373.980469 29.851562 373.980469 30.074219 C 373.980469 30.300781 374.203125 30.480469 373.980469 30.480469 Z M 373.980469 30.480469 " fill-opacity="1" fill-rule="nonzero"/></svg>